<svg viewBox="0 0 655 290" fill="none" xmlns="http://www.w3.org/2000/svg">
<path d="M210.513 222.15H180.712V274.425H108.459V222.15H0.78125V168.469L113.238 4.05469H180.712V167.626H210.513V222.15ZM108.74 167.626V136.149C108.74 130.246 109.021 122.377 109.302 112.259C109.864 102.141 110.145 97.0825 110.427 96.5204H108.459C104.241 106.076 99.4621 114.789 94.1204 123.22L64.0382 167.626H108.74Z" fill="#1D9BF0"/>
<path d="M425.025 139.803C425.025 187.581 416.871 222.713 401.128 244.916C385.102 267.119 360.643 278.361 327.468 278.361C295.137 278.361 270.959 266.837 254.371 243.51C238.065 220.183 229.912 185.614 229.912 139.803C229.912 91.7429 237.784 56.6115 254.09 34.1275C270.115 11.6434 294.575 0.401367 327.749 0.401367C359.8 0.401367 384.259 12.2055 400.565 35.5327C416.59 58.8599 425.025 93.4292 425.025 139.803ZM302.447 139.803C302.447 170.437 304.415 191.516 308.07 202.758C312.006 214.281 318.191 219.902 327.187 219.902C336.184 219.902 342.65 214 346.586 202.196C350.241 190.392 352.209 169.594 352.209 139.803C352.209 109.73 350.241 88.9323 346.586 76.8472C342.65 64.762 336.465 58.8599 327.468 58.8599C318.472 58.8599 312.006 64.762 308.351 76.2851C304.134 87.8082 302.447 108.887 302.447 139.803Z" fill="#1D9BF0"/>
<path d="M654.436 222.15H624.635V274.425H552.381V222.15H444.704V168.469L557.161 4.05469H624.635V167.626H654.436V222.15ZM552.663 167.626V136.149C552.663 130.246 552.944 122.377 553.225 112.259C553.787 102.141 554.068 97.0825 554.349 96.5204H552.381C548.164 106.076 543.385 114.789 538.043 123.22L507.961 167.626H552.663Z" fill="#1D9BF0"/>
<path d="M448.359 241.544C448.359 241.544 450.889 237.609 451.452 233.393C452.014 229.177 448.078 225.243 444.704 222.713C441.331 220.184 433.178 213.439 438.238 210.347C443.299 207.256 470.288 199.105 476.755 194.046C483.221 188.987 483.221 179.712 481.534 175.778C479.847 171.562 461.573 155.542 426.992 155.542C392.412 155.542 350.803 172.405 344.618 172.686C338.433 172.967 338.714 161.444 338.714 161.444L337.87 155.542H314.817L311.162 161.444C311.162 161.444 312.568 169.314 306.101 170.157C299.635 170.719 267.585 153.575 244.531 144.581C230.474 138.96 208.545 135.025 201.798 135.025C191.396 135.025 175.933 143.176 172.559 156.104C169.185 169.033 180.712 195.17 183.524 201.634C186.335 208.099 188.303 211.471 186.897 214.844C185.492 218.216 182.118 230.583 181.274 233.955C180.712 237.328 180.712 243.511 181.274 244.073C181.837 244.635 191.396 253.067 192.239 253.348C193.082 253.629 197.862 254.472 195.894 249.975C198.143 252.505 199.268 256.439 201.236 253.348C203.204 249.975 201.236 235.361 201.236 228.053C201.236 220.746 213.325 211.471 214.449 210.909C215.574 210.347 225.414 210.909 227.944 210.909C230.474 210.909 233.848 207.536 227.944 205.007C222.04 202.478 216.698 203.883 212.2 203.602C207.702 203.321 200.392 201.915 203.485 192.36C204.89 188.144 205.453 181.961 205.734 176.059H206.015C218.666 188.706 249.03 201.634 249.03 201.634L268.71 214.844L329.155 230.021L374.138 221.87L386.789 210.347C386.789 210.347 386.227 201.353 398.878 201.353C405.345 201.353 414.622 200.229 416.309 199.105" fill="white"/>
<path d="M200.111 256.158C198.986 256.158 197.862 255.315 197.3 254.191C195.613 255.315 193.364 255.034 192.239 254.753C191.677 254.472 191.396 254.472 182.961 247.164C181.837 246.04 180.712 245.197 180.712 245.197C178.463 243.511 180.15 233.393 180.15 233.393C180.712 230.02 184.367 217.373 185.773 213.719C186.616 211.471 185.773 209.222 183.524 204.726C183.242 203.882 182.68 203.039 182.399 201.915L182.118 201.353C172.559 179.431 168.904 163.692 171.153 155.261C174.808 142.332 190.271 133.058 202.079 133.058C202.079 133.058 202.079 133.058 202.36 133.058C209.67 133.058 231.599 137.273 245.375 142.894C254.652 146.548 265.055 151.326 275.176 155.823C288.671 162.006 302.728 168.47 306.101 168.189C307.226 168.189 308.069 167.627 308.913 166.784C310.037 165.097 310.037 162.568 309.756 161.725C309.756 161.163 309.756 160.882 310.037 160.601L313.692 154.699C313.973 154.136 314.536 153.855 315.098 153.855H338.152C338.995 153.855 339.838 154.417 339.838 155.542L340.682 161.444C340.682 163.411 340.963 168.751 342.931 170.718C343.493 171.281 344.056 171.562 344.618 171.281C346.024 171.281 350.803 169.875 356.426 167.908C373.294 162.568 401.69 154.136 426.992 154.136C462.416 154.136 481.534 170.999 483.221 175.496C485.189 180.555 484.908 190.392 477.879 196.013C473.662 199.105 462.697 203.32 452.857 206.974C446.672 209.222 441.05 211.471 439.082 212.595C438.238 213.157 438.238 213.438 438.238 213.719C438.238 215.406 441.05 218.778 445.548 222.151C448.078 224.118 453.982 228.896 452.857 234.517C452.014 239.014 449.765 243.23 449.484 243.23C448.922 244.073 447.797 244.354 446.954 243.792C446.11 243.23 445.829 242.105 446.391 241.262C446.391 241.262 448.64 237.609 449.203 233.674C449.765 229.739 444.704 225.804 443.299 224.68C439.925 222.151 434.302 217.373 434.583 213.157C434.583 212.033 435.146 210.347 437.114 209.222C439.363 207.817 444.985 205.85 451.452 203.32C460.448 199.948 471.694 195.732 475.349 192.921C481.253 188.425 480.972 179.993 479.566 176.62C477.879 172.686 459.886 157.509 426.43 157.509C401.69 157.509 373.575 166.222 356.707 171.281C350.241 173.248 345.742 174.653 344.056 174.653C342.369 174.653 340.963 174.091 339.557 172.967C336.184 169.594 336.184 162.287 336.184 161.444L335.621 157.509H315.098L312.287 162.006C312.568 163.411 312.568 166.784 310.6 169.313C309.475 171 307.507 171.843 305.539 172.124C301.322 172.405 290.358 167.627 272.646 159.476C262.524 154.98 252.403 150.202 243.126 146.548C228.787 140.927 206.858 136.992 201.236 136.992C191.958 136.992 177.057 144.581 173.684 156.666C172.278 162.006 172.84 174.091 184.367 200.51L184.648 201.072C184.929 201.915 185.492 203.039 185.773 203.882C188.022 208.941 189.428 212.033 188.022 215.687C186.616 219.059 183.242 231.425 182.68 234.517C182.118 237.609 182.118 241.824 182.399 243.23C182.961 243.511 183.524 244.354 184.648 245.197C186.897 247.164 191.396 251.099 192.52 251.942C193.364 252.223 193.926 251.942 194.207 251.942C194.207 251.942 194.207 251.661 193.926 251.099C193.645 250.256 193.926 249.413 194.488 248.851C195.332 248.288 196.175 248.57 196.737 249.132C197.581 249.975 198.143 250.818 198.705 251.661C198.986 251.942 199.268 252.504 199.549 252.785C200.673 251.099 200.111 242.667 199.83 237.046C199.549 233.674 199.268 230.863 199.268 228.334C199.268 219.621 213.325 209.784 213.325 209.503C214.168 208.941 216.136 208.941 224.289 209.222C225.695 209.222 227.101 209.222 227.663 209.222C228.506 209.222 229.069 208.66 229.35 208.379C229.35 208.098 229.069 207.536 227.101 206.693C223.446 205.007 219.791 205.288 216.417 205.288C214.73 205.288 213.325 205.288 211.919 205.288C208.826 205.007 204.609 204.445 202.36 201.072C200.673 198.824 200.673 195.451 201.798 191.797C202.922 188.425 203.766 183.085 204.047 176.058C204.047 175.496 204.328 175.215 204.609 174.934C204.89 174.653 205.453 174.372 206.015 174.372H206.296C206.858 174.372 207.139 174.653 207.421 174.934C219.791 187.3 249.592 199.948 249.873 200.229L269.553 213.438L329.436 228.334L373.575 220.183L385.383 209.503C385.383 208.098 385.946 205.569 387.914 203.32C390.444 200.791 394.099 199.386 399.159 199.386C406.188 199.386 414.341 198.261 415.466 197.418C416.309 196.856 417.434 197.137 417.996 197.699C418.558 198.543 418.558 199.386 417.715 200.229C415.184 202.196 403.095 202.758 399.159 202.758C395.223 202.758 392.412 203.601 390.725 205.569C389.038 207.536 389.038 209.785 389.038 209.785C389.038 210.347 388.757 210.909 388.476 211.19L375.825 222.713C375.543 222.994 375.262 222.994 374.981 223.275L329.999 231.425C329.717 231.425 329.436 231.425 329.155 231.425L268.71 216.249C268.428 216.249 268.428 216.249 268.147 215.968L248.467 202.758C247.624 202.477 221.197 191.235 207.421 179.15C206.858 184.771 206.296 189.268 205.171 192.359C204.328 195.17 204.328 197.418 205.171 198.824C206.577 200.791 209.951 201.353 212.2 201.634C213.325 201.634 214.73 201.634 216.136 201.634C219.791 201.634 224.008 201.353 228.506 203.32C233.005 205.288 233.005 207.817 232.723 208.941C232.161 211.19 229.912 212.595 227.663 212.595C226.819 212.595 225.695 212.595 224.008 212.595C221.478 212.595 215.855 212.314 214.73 212.595C212.762 213.719 202.641 222.432 202.641 228.053C202.641 230.301 202.922 233.393 202.922 236.484C203.485 245.478 203.766 251.661 202.36 254.191C202.641 254.753 201.798 256.158 200.111 256.158Z" fill="#3B4B75"/>
<path d="M358.113 100.456C358.113 100.456 364.579 90.6188 377.792 92.8672C391.006 95.1156 370.483 108.325 361.205 107.482L355.02 123.221L344.337 135.025L327.187 131.371L308.35 131.09L300.197 123.221L296.261 105.796C296.261 105.796 274.332 99.6125 275.457 91.462C276.581 83.3115 294.293 94.5536 294.293 94.5536C294.293 94.5536 297.667 86.4031 300.197 85.5599C302.728 84.7168 302.446 74.5989 302.446 74.5989L348.554 70.9453L358.394 83.8736V100.456H358.113Z" fill="white"/>
<path d="M344.618 136.711H344.337L327.187 133.057L308.631 132.776C308.069 132.776 307.788 132.495 307.507 132.214L299.354 124.345C299.073 124.064 298.792 123.782 298.792 123.501L295.137 107.2C290.357 105.795 272.926 99.8932 274.051 91.1806C274.332 88.6511 275.738 87.8079 276.862 87.2458C281.361 85.2785 289.795 89.4943 294.012 92.0237C295.418 88.9322 297.667 84.7164 300.197 83.8732C300.76 83.3111 301.322 78.8143 301.041 74.5986C301.041 73.7554 301.603 72.9123 302.727 72.6312L348.835 68.9775C349.397 68.9775 349.959 69.2586 350.522 69.5397L360.362 82.468C360.643 82.749 360.643 83.0301 360.643 83.5922V95.6774C364.017 92.8669 370.202 89.2132 378.917 90.8995C384.259 91.7427 384.821 94.5532 384.54 96.2395C383.696 101.861 370.764 108.887 363.173 109.168L357.269 123.782C357.269 124.064 356.988 124.064 356.988 124.345L346.305 136.149C345.461 136.43 344.899 136.711 344.618 136.711ZM309.194 128.841L327.468 129.122L344.055 132.776L353.895 121.815L360.08 106.357C360.362 105.514 361.205 105.233 361.767 105.233C367.952 105.795 380.042 98.769 380.604 95.3963C380.604 94.8342 379.198 94.2721 377.792 93.9911C365.985 92.0237 360.081 100.736 359.799 101.017C359.237 101.579 358.675 101.861 357.831 101.861C356.988 101.579 356.426 101.017 356.426 100.174V84.1543L347.429 72.3502L304.133 76.0038C304.133 80.2196 303.571 86.1217 300.76 86.9648C299.916 87.2459 297.386 91.1806 295.98 95.1153C295.699 95.6774 295.418 95.9585 294.856 96.2395C294.293 96.5206 293.731 96.2395 293.45 95.9584C288.67 92.8669 280.798 89.2132 277.987 90.3374C277.706 90.3374 277.425 90.6185 277.144 91.4616C276.581 96.5205 290.076 102.142 296.823 103.828C297.386 104.109 297.948 104.39 297.948 105.233L301.884 122.096L309.194 128.841Z" fill="#3B4B75"/>
<path d="M423.619 284.544C412.654 283.138 401.409 282.014 390.444 280.89C386.789 280.609 383.134 280.328 379.48 280.047C374.981 279.766 370.483 279.485 365.704 279.204C360.362 278.923 355.301 278.641 350.241 278.641C327.187 278.079 303.571 278.642 280.236 280.609C276.582 280.89 272.927 281.171 269.272 281.452C265.336 281.733 261.119 282.295 257.183 282.576C243.407 283.981 229.912 285.668 216.979 287.635C216.979 287.635 195.613 279.766 196.175 243.791C196.737 207.817 235.816 201.353 249.873 201.634C260.275 201.634 306.664 213.438 333.935 214C361.205 214.562 392.693 209.222 408.718 209.784C424.743 210.346 444.704 227.209 444.704 248.569C444.704 269.367 426.43 284.825 423.619 284.544Z" fill="#1D9BF0"/>
<path d="M216.98 289.321C216.699 289.321 216.417 289.321 216.417 289.321C215.574 289.04 193.926 280.328 194.488 243.791C195.051 208.941 230.756 199.666 249.873 199.666C254.09 199.666 263.649 201.352 275.738 203.882C294.294 207.535 317.628 211.751 333.935 212.032C348.835 212.313 365.141 210.908 379.48 209.503C391.288 208.379 401.409 207.535 408.718 207.816C425.868 208.379 446.673 226.647 446.673 248.288C446.673 262.903 438.238 275.55 430.366 282.576C428.398 284.543 425.306 286.511 423.338 286.23C412.092 284.824 400.846 283.419 390.444 282.576C386.789 282.295 383.135 282.014 379.48 281.733C374.981 281.452 370.483 281.171 365.985 280.89C360.924 280.609 355.583 280.328 350.522 280.328C328.593 279.766 304.977 280.328 280.518 282.295C276.863 282.576 273.208 282.857 269.553 283.138C265.617 283.419 261.4 283.981 257.464 284.262C243.969 285.668 230.474 287.354 216.98 289.321ZM249.592 203.039C231.88 203.039 198.424 211.47 197.862 243.51C197.3 275.269 214.168 284.262 216.98 285.668C230.193 283.7 243.688 282.014 256.902 280.609C260.838 280.328 265.055 279.765 268.991 279.484C272.646 279.203 276.301 278.922 279.955 278.641C304.415 276.955 328.031 276.112 350.241 276.674C355.301 276.674 360.643 276.955 365.704 277.236C370.202 277.517 374.7 277.798 379.48 278.079C383.135 278.36 386.789 278.641 390.444 278.922C401.128 279.766 412.092 281.171 423.619 282.576C426.43 282.014 442.737 267.68 442.737 248.007C442.737 228.052 423.9 211.751 408.437 211.189C401.409 210.908 391.288 211.751 379.761 212.875C365.423 214.281 349.116 215.686 333.935 215.405C317.066 215.124 293.731 210.627 274.895 206.973C263.368 205.006 253.528 203.039 249.592 203.039Z" fill="#3B4B75"/>
<path d="M414.06 262.341C388.195 262.341 349.96 258.968 310.881 251.942C249.311 240.7 197.581 254.471 197.019 254.752C196.175 255.033 195.051 254.471 194.769 253.628C194.488 252.785 195.051 251.66 195.894 251.379C196.456 251.098 249.03 237.327 311.162 248.569C374.138 260.092 430.085 260.654 442.455 256.157C443.299 255.876 444.423 256.438 444.705 257.282C444.986 258.125 444.705 259.249 443.58 259.53C438.801 261.497 428.117 262.341 414.06 262.341Z" fill="#3B4B75"/>
<path d="M195.05 249.694H194.769C194.488 249.694 187.741 247.446 186.897 242.106C186.054 237.328 186.897 230.302 186.897 229.739C186.897 228.896 187.46 228.615 188.303 228.615C189.146 228.615 189.709 229.458 189.428 230.02C189.428 230.02 188.865 237.328 189.428 241.544C189.99 245.197 195.613 247.165 195.613 247.165C196.175 247.446 196.737 248.008 196.456 248.851C196.175 249.132 195.613 249.694 195.05 249.694Z" fill="#3B4B75"/>
<path d="M446.954 245.197C446.672 245.197 446.11 244.916 445.829 244.635C445.267 244.072 445.548 243.229 446.11 242.667C447.235 241.824 447.516 236.484 446.954 231.987C446.954 231.144 447.516 230.582 448.078 230.582C448.922 230.582 449.484 231.144 449.484 231.706C449.765 234.236 450.327 242.386 447.516 244.635C447.516 245.197 447.235 245.197 446.954 245.197Z" fill="#3B4B75"/>
<path d="M327.469 126.031C326.625 126.031 325.782 125.188 325.782 124.345C325.501 115.913 324.657 102.423 324.376 98.7693C323.251 98.7693 321.283 98.4883 320.159 98.7693C319.315 101.58 317.629 113.103 316.504 123.221C316.504 124.064 315.661 124.907 314.536 124.626C313.693 124.626 312.849 123.502 313.13 122.659C316.223 96.802 317.347 96.2399 317.91 95.6778C319.597 94.2725 325.782 95.1157 326.625 95.3967C327.75 95.9588 328.031 96.2399 329.437 124.064C329.437 125.188 328.593 126.031 327.469 126.031Z" fill="#3B4B75"/>
<path d="M312.286 111.979C312.567 113.665 309.194 113.384 305.258 113.946C301.322 114.508 298.229 115.913 297.948 114.508C297.667 112.822 300.197 108.887 304.133 108.325C308.069 107.482 312.005 110.573 312.286 111.979Z" fill="#FF9292"/>
<path d="M305.539 110.012C298.229 110.012 292.325 104.109 292.325 96.8022C292.325 89.4948 298.229 83.5928 305.539 83.5928C312.849 83.5928 318.753 89.4948 318.753 96.8022C318.753 104.109 312.849 110.012 305.539 110.012ZM305.539 87.2464C300.197 87.2464 295.699 91.4622 295.699 97.0832C295.699 102.423 299.916 106.92 305.539 106.92C310.881 106.92 315.379 102.704 315.379 97.0832C315.379 91.4622 310.881 87.2464 305.539 87.2464Z" fill="#3B4B75"/>
<path d="M329.999 113.946C329.717 115.632 333.372 115.632 337.589 116.475C341.806 117.318 345.18 119.286 345.461 117.318C345.743 115.632 343.212 111.135 338.995 110.011C334.778 109.168 330.561 112.259 329.999 113.946Z" fill="#FF9292"/>
<path d="M338.714 111.698C338.433 111.698 338.152 111.698 337.871 111.698C334.216 111.417 331.123 110.012 328.593 107.201C326.344 104.672 324.938 101.299 325.219 97.6456C325.5 90.3383 331.686 84.7173 339.276 84.9984C346.586 85.2794 352.209 91.7436 351.928 99.0509C351.647 102.705 350.241 105.796 347.429 108.325C345.18 110.574 342.088 111.698 338.714 111.698ZM329.155 97.9266C329.155 100.456 329.999 102.986 331.686 104.953C333.372 106.92 335.903 108.044 338.433 108.044C340.963 108.044 343.493 107.201 345.461 105.515C347.429 103.829 348.554 101.299 348.554 98.7698C348.835 93.4299 344.618 88.933 339.276 88.652C333.935 88.652 329.436 92.5867 329.155 97.9266Z" fill="#3B4B75"/>
<path d="M305.54 59.4222C305.54 59.4222 298.23 55.7685 292.326 60.8274C286.422 65.6053 283.329 77.1284 289.233 81.0631C295.137 84.9978 296.262 85.56 299.917 85.56C303.853 85.841 303.009 82.1873 307.508 79.6579C312.006 77.1284 316.785 77.4094 318.191 80.22C319.597 83.0305 319.878 86.4031 323.533 85.56C327.187 84.7168 325.782 78.5337 329.718 77.9716C333.654 77.4095 334.497 80.22 338.714 80.501C342.931 80.7821 342.088 78.8147 345.462 81.9063C348.835 84.9978 351.085 83.0305 351.928 85.56C352.771 88.0894 355.021 91.7431 356.707 94.5536C358.394 97.3641 358.394 100.456 358.394 100.456C358.394 100.456 364.861 93.9915 369.078 92.8673C369.078 92.8673 366.547 88.9326 369.078 85.56C371.608 82.1873 374.982 77.9716 371.046 74.88C367.11 72.0695 364.298 75.4421 363.174 72.3506C362.049 69.259 360.362 52.1148 348.554 52.1148C336.746 52.1148 336.465 60.5464 331.123 59.4222C325.782 58.0169 325.219 49.5854 319.597 52.1148C313.974 54.6443 318.472 63.919 313.974 63.638C308.913 63.0759 310.881 60.5464 305.54 59.4222Z" fill="#3B4B75"/>
<path d="M358.113 119.286C357.832 116.757 362.33 110.573 361.206 109.449C360.081 108.325 356.145 111.417 354.458 113.384C352.771 115.07 350.522 120.41 345.743 121.253C340.963 122.096 336.184 122.94 333.372 123.221C330.561 123.783 327.469 124.345 327.469 124.345C327.469 124.345 325.219 127.717 320.44 127.717C315.661 127.717 314.817 125.188 314.817 124.064C314.817 122.94 314.817 122.94 314.817 122.94C314.817 122.94 308.351 122.378 304.415 118.724C300.479 115.07 296.262 110.854 296.543 108.044C296.543 108.044 294.013 114.789 294.294 119.848C294.575 124.907 294.575 128.842 294.294 131.652C294.013 134.463 292.607 140.365 294.294 142.613C295.981 144.581 296.262 147.391 296.543 150.483C296.824 153.574 306.664 159.195 314.255 160.881C322.127 162.849 321.283 163.692 325.782 163.973C330.561 164.254 331.967 162.006 335.34 160.881C338.714 159.757 343.212 158.352 347.43 154.979C351.647 151.607 355.301 144.862 354.458 138.96C353.615 133.057 358.113 130.809 358.113 127.155C358.113 124.064 358.394 122.096 358.113 119.286ZM321.565 140.927C320.159 140.927 319.034 139.522 319.034 137.554C319.034 135.587 320.159 134.182 321.565 134.182C322.97 134.182 324.095 135.587 324.095 137.554C324.095 139.522 322.97 140.927 321.565 140.927Z" fill="#3B4B75"/>
<path d="M319.596 129.404C317.628 129.404 315.942 128.842 314.817 127.437C312.849 125.469 313.13 122.94 313.13 122.659C313.13 121.535 313.973 120.973 315.098 120.973C315.941 120.973 316.785 121.816 316.785 122.659C316.785 122.659 316.785 124.064 317.628 124.907C318.191 125.469 319.034 125.751 320.159 125.751C324.095 125.751 326.063 124.345 326.063 124.064C326.063 123.221 326.906 122.378 327.749 122.378C328.874 122.378 329.436 123.221 329.717 124.064C329.717 124.626 329.717 125.751 328.593 126.594C326.625 128.561 323.532 129.404 319.596 129.404C319.596 129.404 319.877 129.404 319.596 129.404Z" fill="#3B4B75"/>
<path d="M390.444 280.89C386.789 280.609 383.134 280.328 379.479 280.047C374.981 279.766 370.483 279.485 365.703 279.204C365.703 279.204 376.105 267.118 373.013 241.824C369.92 216.529 363.173 212.876 361.486 212.876C359.799 212.876 358.394 212.876 358.394 212.876C358.394 212.876 358.675 208.098 363.454 207.536C368.233 206.974 370.201 208.66 374.419 207.536C378.636 206.411 392.131 206.13 399.721 235.079C407.031 263.746 390.444 280.89 390.444 280.89Z" fill="white"/>
<path d="M390.444 282.576C386.508 282.295 382.853 282.014 379.48 281.733C374.981 281.452 370.483 281.171 365.985 280.89C365.422 280.89 364.86 280.328 364.579 279.766C364.298 279.204 364.298 278.361 364.86 277.799C364.86 277.799 374.7 265.713 371.608 241.543C368.515 215.967 362.049 214.281 361.768 214.281C359.8 214.281 358.394 214.281 358.394 214.281C357.55 214.281 356.707 213.438 356.707 212.314C356.988 210.065 358.394 205.849 363.454 205.287C365.985 205.006 367.953 205.287 369.358 205.287C371.045 205.568 372.17 205.568 374.138 205.287C378.636 204.163 393.256 203.039 401.409 233.955C408.999 263.465 392.693 280.89 391.85 281.733C391.288 282.576 391.006 282.576 390.444 282.576ZM369.077 277.517C372.451 277.799 376.106 278.08 379.48 278.08C382.853 278.361 386.227 278.642 389.601 278.923C392.412 275.55 404.22 259.811 397.754 235.079C390.163 206.693 377.23 208.098 374.7 208.941C372.17 209.503 370.483 209.222 368.515 208.941C367.109 208.66 365.704 208.66 363.454 208.941C361.768 209.222 360.924 210.065 360.362 210.908C360.643 210.908 360.924 210.908 360.924 210.908C362.049 210.908 370.764 211.189 374.419 241.262C377.23 260.654 371.889 272.459 369.077 277.517Z" fill="#3B4B75"/>
<path d="M280.236 280.328C276.581 280.61 272.927 280.891 269.272 281.172C265.336 281.453 261.119 282.015 257.183 282.296C257.183 282.296 243.969 269.367 243.126 244.354C242.001 219.34 252.122 204.726 270.959 201.353C270.959 201.353 275.176 200.229 277.706 201.353C280.517 202.477 283.61 203.602 286.703 203.883C289.795 204.164 289.233 208.098 289.233 208.098C289.233 208.098 266.179 232.269 279.112 276.956L280.236 280.328Z" fill="white"/>
<path d="M257.183 284.263C256.621 284.263 256.339 283.982 256.058 283.701C255.496 283.139 242.564 269.929 241.439 244.635C240.314 219.059 250.436 203.601 270.678 199.667C270.959 199.667 275.457 198.261 278.55 199.667C281.642 201.072 284.454 201.915 286.984 202.196C288.39 202.477 289.233 203.039 290.077 203.882C291.482 205.569 291.201 208.098 290.92 208.379C290.92 208.66 290.639 208.941 290.358 209.222C290.077 209.503 268.147 233.112 280.799 276.112L281.923 279.766C282.205 280.328 281.923 280.89 281.642 281.171C281.361 281.733 280.799 282.014 280.237 282.014C276.582 282.295 272.927 282.577 269.272 282.858C265.336 283.42 261.4 283.701 257.183 284.263ZM274.895 202.477C273.489 202.477 272.083 202.758 271.521 203.039C252.966 206.693 243.969 220.464 245.094 244.354C245.937 265.432 255.777 277.799 258.026 280.609C261.681 280.328 265.617 279.766 269.272 279.485C272.083 279.204 275.176 278.923 277.987 278.642L277.425 277.237C265.055 235.079 284.173 210.909 287.546 207.255C287.546 206.693 287.546 206.131 287.265 205.85C287.265 205.85 286.984 205.569 286.703 205.569C283.891 205.288 280.518 204.444 277.144 202.758C276.301 202.758 275.738 202.477 274.895 202.477Z" fill="#3B4B75"/>
<path d="M192.52 228.054C192.52 228.054 192.801 229.74 192.52 233.112C192.239 236.485 193.926 247.446 196.175 249.976C198.424 252.505 199.548 256.44 201.516 253.348C203.484 249.976 201.516 235.361 201.516 228.054C201.516 220.746 213.606 211.472 214.73 210.909C215.855 210.347 225.695 210.909 228.225 210.909C230.755 210.909 234.129 207.537 228.225 205.007C222.321 202.478 216.979 203.883 212.481 203.602C207.983 203.321 200.673 201.916 203.766 192.36C205.171 188.144 205.734 181.961 206.015 176.059C206.577 168.471 206.296 161.726 206.296 161.726" fill="white"/>
<path d="M200.111 256.158C198.424 256.158 197.3 254.753 196.456 253.067C195.894 252.505 195.613 251.661 195.051 251.099C192.239 248.008 190.552 236.485 191.115 232.831C191.396 229.74 191.115 228.334 191.115 228.334C190.833 227.491 191.396 226.367 192.52 226.367C193.364 226.086 194.488 226.648 194.769 227.772C194.769 228.053 195.332 229.739 194.769 233.393C194.488 237.047 196.175 247.165 197.862 248.851C198.705 249.694 199.268 250.537 199.83 251.38C200.111 251.661 200.392 252.224 200.673 252.505C201.798 250.818 201.236 242.387 200.955 236.766C200.673 233.393 200.392 230.583 200.392 228.053C200.392 219.341 214.449 209.504 214.449 209.223C215.293 208.661 217.261 208.661 225.414 208.942C226.82 208.942 228.225 208.942 228.788 208.942C229.631 208.942 230.193 208.38 230.474 208.099C230.474 207.817 230.193 207.255 228.225 206.412C224.57 204.726 220.916 205.007 217.542 205.007C215.855 205.007 214.449 205.007 213.044 205.007C209.951 204.726 205.734 204.164 203.485 200.791C201.798 198.543 201.798 195.17 202.923 191.517C204.047 188.144 204.891 182.804 205.172 175.778C205.734 168.189 205.453 161.444 205.453 161.444C205.453 160.601 206.296 159.758 207.14 159.758C208.264 159.758 208.827 160.601 208.827 161.444C208.827 161.444 208.826 168.47 208.545 176.059C207.983 183.366 207.14 188.987 206.015 192.641C205.172 195.451 205.172 197.7 206.015 199.105C207.421 201.072 210.794 201.634 213.044 201.915C214.168 201.915 215.574 201.915 216.98 201.915C220.634 201.915 224.852 201.634 229.35 203.602C233.848 205.569 233.848 208.099 233.567 209.223C233.005 211.471 230.756 212.876 228.506 212.876C227.663 212.876 226.538 212.876 224.852 212.876C222.321 212.876 216.698 212.595 215.574 212.876C213.606 214.001 203.485 222.713 203.485 228.334C203.485 230.583 203.766 233.674 203.766 236.766C204.328 245.759 204.609 251.942 203.204 254.472C202.641 254.753 201.798 256.158 200.111 256.158Z" fill="#3B4B75"/>
<path d="M441.893 252.785C441.612 252.785 441.612 252.785 441.33 252.785C439.081 252.223 438.519 249.131 438.238 246.04C437.957 241.824 435.426 235.079 431.772 230.863C431.209 230.301 430.647 229.458 429.804 228.615C425.868 223.275 419.682 215.405 406.469 214C391.287 212.314 391.287 212.033 391.287 210.346C391.287 209.784 391.849 209.222 392.412 208.66C393.536 207.817 400.846 202.477 407.593 201.634C412.092 201.072 415.746 197.98 419.401 194.889C421.088 193.483 422.494 192.359 424.181 190.954C426.149 189.549 428.117 186.738 430.366 183.928C434.302 178.588 438.8 172.686 445.266 170.999C446.11 170.718 447.234 171.28 447.516 172.405C447.797 173.248 447.234 174.372 446.11 174.653C440.768 176.058 436.832 181.398 433.177 186.176C430.928 189.268 428.679 192.359 426.149 194.046C424.462 195.17 423.056 196.575 421.369 197.699C417.433 201.072 413.216 204.444 407.874 205.288C404.22 205.85 400.284 207.817 397.472 209.503C399.44 209.784 402.252 210.065 406.75 210.627C421.369 212.314 428.398 221.307 432.615 226.647C433.177 227.491 433.74 228.334 434.302 228.896C438.519 233.955 441.33 241.262 441.612 246.04C441.612 247.445 441.893 248.288 442.174 248.85C442.455 248.569 442.736 248.007 443.017 247.445C445.266 243.51 442.736 235.641 441.612 232.831C441.33 231.987 441.612 230.863 442.455 230.582C443.298 230.301 444.423 230.582 444.704 231.425C445.266 232.55 449.483 242.948 445.829 249.131C445.266 250.818 443.861 252.785 441.893 252.785Z" fill="#3B4B75"/>
<path d="M443.298 232.268C443.298 232.268 447.797 242.948 444.704 248.288C441.33 253.909 440.487 250.255 439.925 246.039C439.644 241.823 437.113 234.516 433.177 229.738C428.96 224.96 422.775 213.999 406.75 212.313C390.444 210.627 393.255 210.346 393.255 210.346C393.255 210.346 400.846 204.444 407.593 203.32C414.341 202.195 415.746 199.104 421.65 195.169" fill="white"/>
<path d="M441.893 252.785C441.611 252.785 441.612 252.785 441.33 252.785C439.081 252.223 438.519 249.131 438.238 246.04C437.957 241.824 435.426 235.079 431.772 230.863C431.209 230.301 430.647 229.458 429.804 228.614C425.868 223.275 419.682 215.405 406.469 214C391.287 212.314 391.287 212.032 391.287 210.346C391.287 209.784 391.849 209.222 392.412 208.66C393.536 207.817 400.846 202.477 407.593 201.634C411.811 201.071 413.778 199.385 416.59 197.137C417.714 196.013 419.12 194.888 421.088 193.764C421.932 193.202 423.056 193.483 423.618 194.326C424.181 195.169 423.9 196.294 423.056 196.856C421.369 197.98 419.964 199.104 418.839 200.228C415.746 202.758 413.497 204.725 408.156 205.568C404.501 206.13 400.565 208.098 397.753 209.784C399.721 210.065 402.533 210.346 407.031 210.908C421.65 212.595 428.679 221.588 432.896 226.928C433.458 227.771 434.021 228.614 434.583 229.177C438.8 234.235 441.611 241.543 441.893 246.321C441.893 247.726 442.174 248.569 442.455 249.131C442.736 248.85 443.017 248.288 443.298 247.726C445.547 243.791 443.017 235.922 441.893 233.111C441.611 232.268 441.893 231.144 442.736 230.863C443.58 230.582 444.704 230.863 444.985 231.706C445.547 232.83 449.765 243.229 446.11 249.412C445.266 250.817 443.861 252.785 441.893 252.785Z" fill="#3B4B75"/>
</svg>
