<svg width="37" height="21" viewBox="0 0 37 21" fill="none" xmlns="http://www.w3.org/2000/svg">
<g clip-path="url(#clip0_177_2222)">
<path fill-rule="evenodd" clip-rule="evenodd" d="M29.1616 9.84391H3.07289L10.8776 4.40163C11.2441 4.14504 11.2441 3.72963 10.8776 3.4737C10.511 3.2171 9.91758 3.2171 9.55195 3.4737L0.270703 9.96991C-0.0902344 10.2226 -0.0902344 10.6452 0.270703 10.8979L9.55195 17.3947C9.91852 17.6513 10.512 17.6513 10.8776 17.3947C11.2441 17.1381 11.2441 16.7227 10.8776 16.4668L3.07289 11.1564H29.1616C29.6791 11.1564 30.0991 10.8624 30.0991 10.5002C30.0991 10.1379 29.6791 9.84391 29.1616 9.84391Z" fill="#121313"/>
</g>
<rect width="0.962298" height="14.9407" transform="matrix(0.999931 0.0117719 0.0117719 -0.999931 35 17.9395)" fill="#312F2F"/>
<defs>
<clipPath id="clip0_177_2222">
<rect width="30" height="21" fill="white"/>
</clipPath>
</defs>
</svg>
