<svg  viewBox="0 0 24 24" fill="none" xmlns="http://www.w3.org/2000/svg">
<mask id="mask0_164_3103" style="mask-type:alpha" maskUnits="userSpaceOnUse" x="0" y="0" width="24" height="24">
<rect width="24" height="24" fill="#C4C4C4"/>
</mask>
<g mask="url(#mask0_164_3103)">
<path d="M19.55 22.15C19.393 22.15 19.238 22.1 19.108 22.006L11.65 16.578L4.192 22.008C3.964 22.172 3.66199 22.198 3.40999 22.068C3.15999 21.941 3 21.683 3 21.401V4.25C3 3.01 4.01 2 5.25 2H18.048C19.288 2 20.298 3.01 20.298 4.25V21.4C20.298 21.682 20.14 21.94 19.888 22.068C19.782 22.123 19.665 22.15 19.548 22.15H19.55ZM11.65 14.9C11.805 14.9 11.96 14.948 12.09 15.044L18.8 19.927V4.25C18.8 3.838 18.463 3.5 18.05 3.5H5.25C4.837 3.5 4.5 3.838 4.5 4.25V19.927L11.21 15.044C11.34 14.948 11.495 14.9 11.65 14.9Z" fill="black"/>
</g>
</svg>
