<svg viewBox="0 0 448 450" fill="none" xmlns="http://www.w3.org/2000/svg">
<path d="M342.6 55.5998C355.1 43.0998 355.1 22.7998 342.6 10.2998C330.1 -2.2002 309.8 -2.2002 297.3 10.2998L160 147.7L102.6 90.2998C90.0998 77.7998 69.7998 77.7998 57.2998 90.2998C44.7998 102.8 44.7998 123.1 57.2998 135.6L137.3 215.6C149.8 228.1 170.1 228.1 182.6 215.6L342.6 55.5998ZM438.6 183.6C451.1 171.1 451.1 150.8 438.6 138.3C426.1 125.8 405.8 125.8 393.3 138.3L160 371.7L54.5998 266.4C42.0998 253.9 21.7998 253.9 9.2998 266.4C-3.2002 278.9 -3.2002 299.2 9.2998 311.7L137.3 439.7C149.8 452.2 170.1 452.2 182.6 439.7L438.6 183.7V183.6Z" fill="white"/>
</svg>
