<svg width="28" height="28" viewBox="0 0 28 28" fill="none" xmlns="http://www.w3.org/2000/svg">
<g opacity="0.6">
<path d="M19.8333 10.6986C19.6147 10.4813 19.319 10.3594 19.0108 10.3594C18.7026 10.3594 18.4069 10.4813 18.1883 10.6986L14 14.8286L9.86998 10.6986C9.65139 10.4813 9.3557 10.3594 9.04748 10.3594C8.73926 10.3594 8.44357 10.4813 8.22498 10.6986C8.11563 10.8071 8.02884 10.9361 7.96961 11.0783C7.91038 11.2205 7.87988 11.373 7.87988 11.527C7.87988 11.681 7.91038 11.8335 7.96961 11.9756C8.02884 12.1178 8.11563 12.2468 8.22498 12.3553L13.1716 17.302C13.2801 17.4113 13.4091 17.4981 13.5513 17.5573C13.6935 17.6166 13.846 17.6471 14 17.6471C14.154 17.6471 14.3065 17.6166 14.4487 17.5573C14.5908 17.4981 14.7199 17.4113 14.8283 17.302L19.8333 12.3553C19.9427 12.2468 20.0295 12.1178 20.0887 11.9756C20.1479 11.8335 20.1784 11.681 20.1784 11.527C20.1784 11.373 20.1479 11.2205 20.0887 11.0783C20.0295 10.9361 19.9427 10.8071 19.8333 10.6986Z" fill="black"/>
</g>
</svg>
