<svg width="20" height="20" viewBox="0 0 20 20" fill="none" xmlns="http://www.w3.org/2000/svg">
<g clip-path="url(#clip0_164_3115)">
<path d="M18.5177 7.49492C17.7993 6.31857 16.8931 5.2678 15.8352 4.38431L18.0633 2.15619C18.2082 2.00611 18.2885 1.8051 18.2866 1.59646C18.2848 1.38781 18.2011 1.18823 18.0536 1.04069C17.9061 0.893149 17.7065 0.80946 17.4978 0.807647C17.2892 0.805834 17.0882 0.886042 16.9381 1.031L14.515 3.45725C13.0129 2.56507 11.2957 2.10006 9.5487 2.11243C4.62218 2.11243 1.81475 5.48484 0.579738 7.49492C0.198195 8.11203 -0.00390625 8.82323 -0.00390625 9.54877C-0.00390625 10.2743 0.198195 10.9855 0.579738 11.6026C1.29811 12.779 2.20426 13.8297 3.26223 14.7132L1.03411 16.9413C0.958111 17.0147 0.897489 17.1026 0.855784 17.1996C0.81408 17.2967 0.792128 17.4011 0.791209 17.5068C0.790291 17.6125 0.810425 17.7172 0.850437 17.815C0.890448 17.9128 0.949535 18.0017 1.02425 18.0764C1.09897 18.1511 1.18781 18.2102 1.28561 18.2502C1.38341 18.2902 1.48819 18.3104 1.59385 18.3094C1.69951 18.3085 1.80393 18.2866 1.90101 18.2449C1.9981 18.2032 2.08591 18.1425 2.15931 18.0665L4.58796 15.6379C6.08817 16.5299 7.80335 16.9957 9.5487 16.9851C14.4752 16.9851 17.2827 13.6127 18.5177 11.6026C18.8992 10.9855 19.1013 10.2743 19.1013 9.54877C19.1013 8.82323 18.8992 8.11203 18.5177 7.49492ZM1.93571 10.7695C1.70902 10.4026 1.58896 9.97997 1.58896 9.54877C1.58896 9.11757 1.70902 8.69488 1.93571 8.32808C2.99724 6.60447 5.39645 3.70394 9.5487 3.70394C10.8699 3.69654 12.1725 4.01495 13.3413 4.631L11.7394 6.23285C10.9754 5.72564 10.0595 5.49837 9.14703 5.5896C8.23456 5.68083 7.38175 6.08495 6.73332 6.73338C6.08489 7.38182 5.68077 8.23462 5.58954 9.14709C5.4983 10.0596 5.72557 10.9755 6.23279 11.7395L4.39459 13.5777C3.41987 12.7897 2.5881 11.8397 1.93571 10.7695ZM11.936 9.54877C11.936 10.1819 11.6845 10.7891 11.2368 11.2368C10.7891 11.6845 10.1818 11.936 9.5487 11.936C9.1942 11.9347 8.84462 11.853 8.52616 11.6973L11.6972 8.52622C11.853 8.84468 11.9346 9.19427 11.936 9.54877ZM7.16144 9.54877C7.16144 8.91562 7.41295 8.30841 7.86065 7.86071C8.30835 7.41301 8.91556 7.1615 9.5487 7.1615C9.9032 7.16287 10.2528 7.24449 10.5712 7.40023L7.40016 10.5713C7.24442 10.2529 7.16281 9.90326 7.16144 9.54877ZM17.1617 10.7695C16.1002 12.4931 13.701 15.3936 9.5487 15.3936C8.22753 15.401 6.92491 15.0826 5.75613 14.4665L7.35799 12.8647C8.12197 13.3719 9.0379 13.5992 9.95038 13.5079C10.8628 13.4167 11.7157 13.0126 12.3641 12.3641C13.0125 11.7157 13.4166 10.8629 13.5079 9.95044C13.5991 9.03797 13.3718 8.12203 12.8646 7.35805L14.7028 5.51985C15.6775 6.30788 16.5093 7.25782 17.1617 8.32808C17.3884 8.69488 17.5084 9.11757 17.5084 9.54877C17.5084 9.97997 17.3884 10.4026 17.1617 10.7695Z" fill="#E1E1E1"/>
</g>
<defs>
<clipPath id="clip0_164_3115">
<rect width="19.0981" height="19.0981" fill="white"/>
</clipPath>
</defs>
</svg>
