<svg width="28" height="28" viewBox="0 0 28 28" fill="none" xmlns="http://www.w3.org/2000/svg">
<mask id="mask0_164_3099" style="mask-type:alpha" maskUnits="userSpaceOnUse" x="0" y="0" width="28" height="28">
<rect width="28" height="28" fill="#C4C4C4"/>
</mask>
<g mask="url(#mask0_164_3099)">
<path d="M26.0286 8.80218L14.2417 2.43801C13.9816 2.29801 13.6701 2.29801 13.4099 2.43801L1.62539 8.80218C1.20073 9.03201 1.04206 9.56284 1.2719 9.98868C1.4294 10.2803 1.73156 10.4472 2.0419 10.4472C2.1819 10.4472 2.32539 10.4122 2.45723 10.3422L3.40806 9.82883L5.30856 23.2607C5.55823 24.6782 6.83456 25.6663 8.40956 25.6663H19.2386C20.8159 25.6663 22.0911 24.677 22.3454 23.2315L24.2424 9.8265L25.1967 10.3422C25.6214 10.5673 26.1534 10.4122 26.3832 9.9875C26.6119 9.564 26.4532 9.03318 26.0286 8.80218ZM20.6176 22.9573C20.4927 23.6643 19.7974 23.9163 19.2409 23.9163H8.41189C7.85189 23.9163 7.15773 23.6643 7.03756 22.9853L5.05189 8.94217L13.8252 4.20318L22.6009 8.93984L20.6176 22.9573Z" fill="black"/>
<path d="M9.4152 14.1851C9.4152 16.6165 11.3927 18.5951 13.8252 18.5951C16.2577 18.5951 18.2352 16.6165 18.2352 14.1851C18.2352 11.7538 16.2577 9.77514 13.8252 9.77514C11.3927 9.77514 9.4152 11.7538 9.4152 14.1851ZM16.4852 14.1851C16.4852 15.6528 15.2929 16.8451 13.8252 16.8451C12.3575 16.8451 11.1652 15.6528 11.1652 14.1851C11.1652 12.7175 12.3575 11.5251 13.8252 11.5251C15.2929 11.5251 16.4852 12.7175 16.4852 14.1851Z" fill="black"/>
</g>
</svg>
