<svg viewBox="0 0 24 24" fill="none" xmlns="http://www.w3.org/2000/svg">
<mask id="mask0_164_3104" style="mask-type:alpha" maskUnits="userSpaceOnUse" x="0" y="0" width="24" height="24">
<rect width="24" height="24" fill="#C4C4C4"/>
</mask>
<g mask="url(#mask0_164_3104)">
<path d="M19.75 22H4.25C3.01 22 2 20.99 2 19.75V4.25C2 3.01 3.01 2 4.25 2H19.75C20.99 2 22 3.01 22 4.25V19.75C22 20.99 20.99 22 19.75 22ZM4.25 3.5C3.836 3.5 3.5 3.837 3.5 4.25V19.75C3.5 20.163 3.836 20.5 4.25 20.5H19.75C20.164 20.5 20.5 20.163 20.5 19.75V4.25C20.5 3.837 20.164 3.5 19.75 3.5H4.25Z" fill="black"/>
<path d="M16.75 8.5H6.75C6.336 8.5 6 8.163 6 7.75C6 7.337 6.336 7 6.75 7H16.75C17.164 7 17.5 7.335 17.5 7.75C17.5 8.165 17.164 8.5 16.75 8.5ZM16.75 12.61H6.75C6.336 12.61 6 12.274 6 11.86C6 11.446 6.336 11.11 6.75 11.11H16.75C17.164 11.11 17.5 11.446 17.5 11.86C17.5 12.274 17.164 12.61 16.75 12.61ZM11.75 16.72H6.75C6.336 16.72 6 16.385 6 15.97C6 15.555 6.336 15.22 6.75 15.22H11.75C12.164 15.22 12.5 15.557 12.5 15.97C12.5 16.383 12.164 16.72 11.75 16.72Z" fill="black"/>
</g>
</svg>
