<svg  viewBox="0 0 50 50" fill="none" xmlns="http://www.w3.org/2000/svg">
<rect x="22.5" y="2.5" width="5" height="15" rx="1" fill="#E1E1E1"/>
<rect x="39.1421" y="7.32227" width="5" height="15" rx="1" transform="rotate(45 39.1421 7.32227)" fill="#E1E1E1"/>
<rect x="47.5" y="22.5" width="5" height="15" rx="1" transform="rotate(90 47.5 22.5)" fill="#E1E1E1"/>
<rect x="42.6777" y="39.1426" width="5" height="15" rx="1" transform="rotate(135 42.6777 39.1426)" fill="#E1E1E1"/>
<rect x="27.5" y="47.5" width="5" height="15" rx="1" transform="rotate(-180 27.5 47.5)" fill="#E1E1E1"/>
<rect x="10.8579" y="42.6777" width="5" height="15" rx="1" transform="rotate(-135 10.8579 42.6777)" fill="#E1E1E1"/>
<rect x="2.5" y="27.5" width="5" height="15" rx="1" transform="rotate(-90 2.5 27.5)" fill="#E1E1E1"/>
<rect x="7.32227" y="10.8574" width="5" height="15" rx="1" transform="rotate(-45 7.32227 10.8574)" fill="#E1E1E1"/>
</svg>
