<svg  viewBox="0 0 28 28" fill="none" xmlns="http://www.w3.org/2000/svg">
<mask id="mask0_164_3106" style="mask-type:alpha" maskUnits="userSpaceOnUse" x="0" y="0" width="28" height="28">
<rect width="28" height="28" fill="#C4C4C4"/>
</mask>
<g mask="url(#mask0_164_3106)">
<path d="M18.9584 11.667C17.8326 11.667 16.9167 12.5852 16.9167 13.7087C16.9167 14.8322 17.8314 15.7503 18.9584 15.7503C20.0831 15.7503 21.0001 14.8333 21.0001 13.7087C21.0001 12.584 20.0831 11.667 18.9584 11.667ZM18.9584 14.5837C18.4754 14.5837 18.0834 14.1917 18.0834 13.7087C18.0834 13.2268 18.4766 12.8337 18.9584 12.8337C19.4402 12.8337 19.8334 13.2257 19.8334 13.7087C19.8334 14.1905 19.4414 14.5837 18.9584 14.5837ZM13.7084 11.667C12.5814 11.667 11.6667 12.5852 11.6667 13.7087C11.6667 14.8322 12.5826 15.7503 13.7084 15.7503C14.8342 15.7503 15.7501 14.8333 15.7501 13.7087C15.7501 12.584 14.8354 11.667 13.7084 11.667ZM13.7084 14.5837C13.2254 14.5837 12.8334 14.1917 12.8334 13.7087C12.8334 13.2268 13.2266 12.8337 13.7084 12.8337C14.1902 12.8337 14.5834 13.2257 14.5834 13.7087C14.5834 14.1905 14.1914 14.5837 13.7084 14.5837ZM8.45842 11.667C7.33258 11.667 6.41675 12.5852 6.41675 13.7087C6.41675 14.8322 7.33258 15.7503 8.45842 15.7503C9.58308 15.7503 10.5001 14.8333 10.5001 13.7087C10.5001 12.584 9.58191 11.667 8.45842 11.667ZM8.45842 14.5837C7.97542 14.5837 7.58342 14.1917 7.58342 13.7087C7.58342 13.2268 7.97658 12.8337 8.45842 12.8337C8.94025 12.8337 9.33342 13.2257 9.33342 13.7087C9.33342 14.1905 8.94142 14.5837 8.45842 14.5837Z" fill="black"/>
<path d="M13.7084 26.2503C6.79242 26.2503 1.16675 20.6247 1.16675 13.7087C1.16675 6.79266 6.79242 1.16699 13.7084 1.16699C20.6244 1.16699 26.2501 6.79266 26.2501 13.7087C26.2501 20.6247 20.6244 26.2503 13.7084 26.2503ZM13.7084 2.91699C7.75842 2.91699 2.91675 7.75866 2.91675 13.7087C2.91675 19.6587 7.75842 24.5003 13.7084 24.5003C19.6584 24.5003 24.5001 19.6587 24.5001 13.7087C24.5001 7.75866 19.6584 2.91699 13.7084 2.91699Z" fill="black"/>
</g>
</svg>
