<svg width="28" height="28" viewBox="0 0 28 28" fill="none" xmlns="http://www.w3.org/2000/svg">
<mask id="mask0_164_3100" style="mask-type:alpha" maskUnits="userSpaceOnUse" x="0" y="0" width="28" height="28">
<rect width="28" height="28" fill="#C4C4C4"/>
</mask>
<g mask="url(#mask0_164_3100)">
<path d="M25.314 19.294C25.2907 19.2754 22.8173 17.3807 22.8605 12.259C22.8838 9.30502 21.9131 6.68001 20.1223 4.86818C18.5181 3.24301 16.3458 2.34467 14.0067 2.33301H13.9915C11.6535 2.34467 9.48115 3.24302 7.87581 4.86935C6.08615 6.68119 5.11315 9.30502 5.13882 12.259C5.18199 17.3107 2.78215 19.2205 2.68648 19.294C2.38315 19.5192 2.25948 19.9123 2.37731 20.2717C2.49631 20.631 2.8323 20.8725 3.20797 20.8725H8.94799C9.06699 23.5675 11.2778 25.7259 13.9996 25.7259C16.7215 25.7259 18.93 23.5675 19.0478 20.8725H24.7901C25.1658 20.8725 25.5018 20.6322 25.6185 20.2729C25.7386 19.9147 25.615 19.5203 25.3117 19.2952L25.314 19.294ZM14.0008 23.9723C12.245 23.9723 10.8158 22.5992 10.7015 20.8714H17.3001C17.1835 22.598 15.7566 23.9747 14.0008 23.9747V23.9723ZM5.11082 19.1214C5.97415 17.8007 6.91682 15.5887 6.88882 12.2427C6.86782 9.72268 7.64015 7.59701 9.12065 6.09785C10.3958 4.80635 12.1306 4.09117 14.0008 4.08301C15.871 4.09234 17.6023 4.80635 18.8775 6.09902C20.3591 7.59819 21.1326 9.72269 21.1116 12.2439C21.0836 15.5899 22.0275 17.803 22.8908 19.1225H5.11082V19.1214Z" fill="black"/>
</g>
</svg>
