<svg width="28" height="28" viewBox="0 0 28 28" fill="none" xmlns="http://www.w3.org/2000/svg">
<mask id="mask0_164_3105" style="mask-type:alpha" maskUnits="userSpaceOnUse" x="0" y="0" width="28" height="28">
<rect width="28" height="28" fill="#C4C4C4"/>
</mask>
<g mask="url(#mask0_164_3105)">
<path d="M13.2428 14.1863C14.8236 14.1863 16.5935 14.0113 17.7228 12.721C18.6725 11.636 18.9805 9.95834 18.6631 7.59701C18.2198 4.30118 16.1933 2.33301 13.2428 2.33301C10.2923 2.33301 8.2658 4.30117 7.82247 7.59934C7.50514 9.95834 7.81315 11.636 8.76281 12.721C9.89215 14.0125 11.662 14.1863 13.2428 14.1863ZM9.55614 7.83034C9.74514 6.43034 10.4743 4.08301 13.2428 4.08301C16.0113 4.08301 16.7405 6.43151 16.9295 7.83034C17.171 9.63867 16.996 10.8952 16.4045 11.5695C15.8736 12.1762 14.9275 12.4363 13.2428 12.4363C11.5581 12.4363 10.612 12.1762 10.0811 11.5695C9.48964 10.8952 9.31464 9.63751 9.55614 7.83034ZM22.9028 22.843C21.8796 18.7293 17.9071 15.8547 13.2428 15.8547C8.57848 15.8547 4.60598 18.7293 3.58281 22.843C3.38214 23.6503 3.55014 24.4763 4.04364 25.1063C4.51964 25.713 5.25697 26.063 6.06547 26.063H20.4201C21.2286 26.063 21.966 25.713 22.442 25.1063C22.9366 24.4763 23.1035 23.6515 22.9016 22.843H22.9028ZM21.0641 24.0283C20.9171 24.215 20.6955 24.3153 20.4201 24.3153H6.06547C5.79131 24.3153 5.56847 24.2162 5.42147 24.0283C5.26164 23.8253 5.21148 23.5477 5.28148 23.2653C6.10981 19.9345 9.38464 17.607 13.2428 17.607C17.101 17.607 20.3758 19.9333 21.2041 23.2653C21.2741 23.5477 21.224 23.8253 21.0641 24.0283Z" fill="black"/>
</g>
</svg>
